<svg version="1.1" viewBox="0 0 5504 1216" xmlns="http://www.w3.org/2000/svg"><g fill="#a3e635"><path d="m4096 1024v192h288v-32h-240v-48h240v-32h-240v-48h240v-32h-240z"/><path d="m3870 1216-120-192h48l96 144 96-144h48l-120 192z"/><path d="m3645 1216v-192h48v192z"/><path d="m3299 1024v32h120v160h48v-160h120v-32z"/><path d="m2954 1056v128c0 32 48 32 48 32h240v-32h-216s-24 0-24-16v-96c0-16 24-16 24-16h216v-32h-240s-48 0-48 32z"/><path d="m2728 1024-120 192h48l96-144 96 144h48l-120-192z"/><path d="m2262 1024v32h216s24 0 24 16v16c0 16-24 16-24 16h-216v112h48v-80h69.334l106.666 80h64l-106.666-80h58.666s48 0 48-32v-48c0-32-48-32-48-32z"/><path d="m1917 1024v192h288v-32h-240v-48h240v-32h-240v-48h240v-32h-240z"/><path d="m1571 1024v32h120v160h48v-160h120v-32z"/><path d="m1226 1024v192h48v-144l192 144h48v-192h-48v144l-192-144z"/><path d="m1120 1216v-192h48v192z"/></g><g fill="#2563eb"><path d="m4480 288v640h288v-352l352 352h384v-640h-288v352l-352-352z"/><path d="m3488 288c-63.9996 0-128 64.00025-128 128v384c0 63.99976 64.0004 128 128 128h16l146.0898-146.0898c-1.3119-4.56732-2.0898-9.22516-2.0898-13.91016v-320c0-31.99988 32-64 64-64h320c4.685 0 9.3429 0.77788 13.9102 2.08984l98.0898-98.08984zm752 0-146.0898 146.0898c1.3119 4.56732 2.0898 9.22516 2.0898 13.91016v320c0 31.99988-32 64-64 64h-320c-4.685 0-9.3429-0.77788-13.9102-2.08984l-98.0898 98.08984h656c63.9996 0 128-64.00024 128-128v-384c0-63.99975-64.0004-128-128-128z"/><path d="m2240 288v640h288v-352l352 352h384v-640h-288v352l-352-352z"/><path d="m1120 288v640h1024v-96h-736v-176h736v-96h-736v-176h736v-96z"/><path d="m0 288 320 320-320 320h384l128-128 128 128h384l-320-320 320-320h-384l-128 128-128-128z"/></g></svg>
