<svg version="1.1" viewBox="0 0 152 96" xmlns="http://www.w3.org/2000/svg"><g fill="#2563eb"><path d="m1.21875 0a1.2195899 1.2195899 0 0 0-1.21875 1.21875 1.2195899 1.2195899 0 0 0 1.21875 1.2207031h55.580078l2.236328 2.2382813h-53.142578a1.2197119 1.2197119 0 0 0-0.8613281 2.0820312l4.6738281 4.6777344a1.2197119 1.2197119 0 0 0 0.8613279 0.357422h55.580078l2.236328 2.238281h-53.142578a1.2197119 1.2197119 0 0 0-0.861328 2.082031l4.673828 4.677735a1.2197119 1.2197119 0 0 0 0.861328 0.357422h53.144532l-2.238282 2.240234h-46.232421a1.2197119 1.2197119 0 0 0-0.861329 2.082031l4.673829 4.677735a1.2197119 1.2197119 0 0 0 0.861328 0.357421h34.447265l-2.236328 2.238282h-27.537109a1.2197119 1.2197119 0 0 0-0.861328 2.082031l4.671875 4.677734a1.2197119 1.2197119 0 0 0 0.863281 0.357422h15.751953l-2.236328 2.238281h-8.841797a1.2197119 1.2197119 0 0 0-0.863281 2.082032l3.8125 3.816406-45.875 45.917969a1.2197119 1.2197119 0 0 0 0.86132812 2.082031h7.0117188a1.2197119 1.2197119 0 0 0 0.8632812-0.357422l93.11719-93.203125h3.5625l-91.394534 91.478516a1.2197119 1.2197119 0 0 0 0.861328 2.082031h7.011719a1.2197119 1.2197119 0 0 0 0.863281-0.357422l93.117186-93.203125h3.5625l-91.394529 91.478516a1.2197119 1.2197119 0 0 0 0.861328 2.082031h7.011718a1.2197119 1.2197119 0 0 0 0.861329-0.357422l93.119144-93.203125h3.5625l-91.396488 91.478516a1.2197119 1.2197119 0 0 0 0.863281 2.082031h7.011719a1.2197119 1.2197119 0 0 0 0.861328-0.357422l93.11914-93.203125h3.5625l-44.6582 44.699219a1.2197119 1.2197119 0 0 0 0 1.722656l2.5957 2.597656h-6.406249a1.2197119 1.2197119 0 0 0-0.863282 0.357422l-4.673828 4.677735a1.2197119 1.2197119 0 0 0 0.863281 2.082031h18.189458l2.23632 2.238281h-25.099606a1.2197119 1.2197119 0 0 0-0.863281 0.357422l-4.673828 4.677734a1.2197119 1.2197119 0 0 0 0.863281 2.082032h36.884764l2.23633 2.238281h-43.794922a1.2197119 1.2197119 0 0 0-0.863281 0.357422l-4.673828 4.679687a1.2197119 1.2197119 0 0 0 0.863281 2.080078h55.58008l2.23828 2.240235h-53.144532a1.2197119 1.2197119 0 0 0-0.863281 2.080078l4.673828 4.679687a1.2197119 1.2197119 0 0 0 0.863281 0.357422h55.580074l2.23633 2.238281h-53.142576a1.2197119 1.2197119 0 0 0-0.863281 2.082032l4.673828 4.677734a1.2197119 1.2197119 0 0 0 0.863281 0.357422h56.085938a1.2195899 1.2195899 0 0 0 1.21875-1.21875 1.2195899 1.2195899 0 0 0-1.21875-1.220703h-55.580078l-2.236328-2.238281h53.142576a1.2197119 1.2197119 0 0 0 0.86133-2.082032l-4.67383-4.677734a1.2197119 1.2197119 0 0 0-0.86133-0.357422h-55.580074l-2.236329-2.238281h53.142583a1.2197119 1.2197119 0 0 0 0.86132-2.082031l-4.67382-4.677735a1.2197119 1.2197119 0 0 0-0.86133-0.357422h-53.144534l2.238281-2.240234h46.232423a1.2197119 1.2197119 0 0 0 0.86133-2.082031l-4.67383-4.677735a1.2197119 1.2197119 0 0 0-0.86133-0.357422h-34.447264l2.236328-2.238281h27.537106a1.2197119 1.2197119 0 0 0 0.86133-2.082031l-4.67187-4.677734a1.2197119 1.2197119 0 0 0-0.86328-0.357422h-15.751958l2.236328-2.238282h8.8418a1.2197119 1.2197119 0 0 0 0.86328-2.082031l-3.8125-3.816406 45.875-45.917969a1.2197119 1.2197119 0 0 0-0.86133-2.0820313h-7.01172a1.2197119 1.2197119 0 0 0-0.86328 0.35742188l-93.117188 93.203125h-3.5625l91.394528-91.478516a1.2197119 1.2197119 0 0 0-0.86132-2.0820313h-7.01172a1.2197119 1.2197119 0 0 0-0.86328 0.35742188l-93.117192 93.203125h-3.5625l91.394532-91.478516a1.2197119 1.2197119 0 0 0-0.86133-2.0820313h-7.01172a1.2197119 1.2197119 0 0 0-0.86133 0.35742188l-93.119136 93.203125h-3.5625l91.396486-91.478516a1.2197119 1.2197119 0 0 0-0.86328-2.0820313h-7.01172a1.2197119 1.2197119 0 0 0-0.86133 0.35742188l-93.119141 93.203125h-3.5625l44.658203-44.699219a1.2197119 1.2197119 0 0 0 0-1.722656l-2.595703-2.597656h6.40625a1.2197119 1.2197119 0 0 0 0.863282-0.357422l4.673828-4.677735a1.2197119 1.2197119 0 0 0-0.863282-2.082031h-18.189453l-2.236328-2.238281h25.09961a1.2197119 1.2197119 0 0 0 0.863281-0.357422l4.673828-4.677734a1.2197119 1.2197119 0 0 0-0.863281-2.082032h-36.884766l-2.236328-2.238281h43.794922a1.2197119 1.2197119 0 0 0 0.863281-0.357422l4.673828-4.679687a1.2197119 1.2197119 0 0 0-0.863281-2.080078h-55.580078l-2.238281-2.240235h53.144531a1.2197119 1.2197119 0 0 0 0.863281-2.080078l-4.673828-4.6796874a1.2197119 1.2197119 0 0 0-0.863281-0.3574218h-55.580078l-2.2363285-2.2382813h53.142578a1.2197119 1.2197119 0 0 0 0.863281-2.0820313l-4.673828-4.6777343a1.2197119 1.2197119 0 0 0-0.863282-0.35742188z"/></g></svg>
